<?xml version="1.0" encoding="UTF-8" standalone="no"?>
<!DOCTYPE svg PUBLIC "-//W3C//DTD SVG 1.1//EN" "http://www.w3.org/Graphics/SVG/1.1/DTD/svg11.dtd">
<svg xmlns="http://www.w3.org/2000/svg" version="1.1" viewBox="0.00 0.00 1452.00 1443.00">
<g stroke-width="2.00" fill="none" stroke-linecap="butt">
<path stroke="#ffdb81" vector-effect="non-scaling-stroke" d="
  M 1185.74 682.73
  L 1072.08 682.75
  Q 1071.60 682.75 1071.16 682.57
  Q 1070.85 682.45 1070.56 682.47"
/>
<path stroke="#ffdb81" vector-effect="non-scaling-stroke" d="
  M 813.48 682.45
  Q 812.80 682.75 812.50 682.75
  Q 723.41 682.75 634.31 682.75
  Q 634.05 682.39 633.23 682.46"
/>
<path stroke="#ffdb81" vector-effect="non-scaling-stroke" d="
  M 376.51 682.75
  L 261.03 682.80"
/>
<path stroke="#ffdb81" vector-effect="non-scaling-stroke" d="
  M 1199.23 747.02
  L 1192.69 746.75"
/>
</g>
<path fill="#ffffff" d="
  M 37.26 671.24
  C 51.65 309.93 345.58 22.36 706.70 13.46
  C 892.96 8.86 1069.85 79.17 1203.58 208.70
  A 0.99 0.95 18.4 0 1 1203.87 209.25
  Q 1204.11 210.60 1202.97 210.25
  Q 1202.45 210.10 1202.14 210.10
  Q 1144.28 209.81 1109.31 210.09
  Q 1093.63 210.21 1084.75 209.89
  Q 1082.51 209.81 1081.76 209.26
  C 973.60 130.09 842.34 89.08 708.50 92.23
  C 497.38 97.20 305.53 212.20 198.84 392.91
  C 116.57 532.25 94.82 699.50 135.73 855.80
  Q 135.97 856.72 134.86 858.35
  Q 114.29 888.53 108.44 897.69
  Q 96.95 915.69 94.61 938.01
  C 93.42 949.33 95.07 959.39 93.88 972.01
  Q 93.81 972.82 93.04 972.56
  Q 92.95 972.53 92.69 972.33
  Q 92.52 972.20 92.44 972.00
  Q 31.02 827.90 37.26 671.24
  Z"
/>
<path fill="#ffb702" d="
  M 1185.74 682.73
  L 1072.08 682.75
  Q 1071.60 682.75 1071.16 682.57
  Q 1070.85 682.45 1070.56 682.47
  Q 1070.16 674.49 1070.42 662.18
  Q 1070.70 649.32 1070.27 599.56
  C 1070.15 585.78 1061.32 573.84 1048.26 570.07
  Q 1043.67 568.75 1031.12 568.75
  Q 940.04 568.76 848.99 568.74
  C 832.78 568.73 819.40 575.09 814.93 591.41
  Q 813.43 596.91 813.46 610.23
  Q 813.56 646.34 813.48 682.45
  Q 812.80 682.75 812.50 682.75
  Q 723.41 682.75 634.31 682.75
  Q 634.05 682.39 633.23 682.46
  Q 633.29 644.57 633.22 606.70
  Q 633.20 595.25 631.81 590.58
  C 628.13 578.14 615.30 568.76 602.75 568.76
  Q 509.01 568.73 415.28 568.77
  Q 402.78 568.78 397.99 570.19
  C 386.01 573.73 376.48 586.09 376.28 598.25
  Q 375.89 620.62 376.51 682.75
  L 261.03 682.80
  Q 260.96 555.64 261.07 427.25
  C 261.09 405.78 274.35 386.66 295.25 381.26
  Q 301.06 379.75 314.51 379.75
  Q 722.26 379.75 1130.01 379.75
  Q 1144.60 379.75 1149.91 380.91
  C 1166.70 384.56 1180.23 398.24 1184.29 414.93
  Q 1185.71 420.79 1185.72 434.80
  Q 1185.79 558.50 1185.74 682.73
  Z"
/>
<path fill="#ffffff" d="
  M 376.51 682.75
  L 633.23 682.46
  Q 634.05 682.39 634.31 682.75
  Q 723.41 682.75 812.50 682.75
  Q 812.80 682.75 813.48 682.45
  Q 813.66 682.50 813.75 682.62
  Q 813.85 682.75 814.01 682.75
  L 1069.01 682.75
  Q 1069.41 682.75 1069.78 682.60
  Q 1070.12 682.45 1070.56 682.47
  Q 1070.85 682.45 1071.16 682.57
  Q 1071.60 682.75 1072.08 682.75
  L 1185.74 682.73
  L 1408.07 682.66
  A 0.49 0.48 86.7 0 1 1408.55 683.09
  C 1410.37 700.71 1410.07 717.66 1409.15 735.44
  Q 1402.89 857.35 1355.27 969.52
  Q 1355.23 969.61 1354.81 970.99
  Q 1354.49 972.01 1353.68 972.35
  A 0.87 0.86 -11.4 0 1 1352.47 971.55
  C 1352.58 957.88 1353.33 942.83 1351.00 930.54
  C 1347.97 914.63 1341.99 903.11 1332.37 888.76
  Q 1321.86 873.09 1311.33 857.43
  Q 1310.92 856.83 1311.24 855.61
  Q 1325.07 802.13 1329.36 747.12
  A 0.36 0.36 0.0 0 0 1329.00 746.73
  L 1199.23 747.02
  L 1192.69 746.75
  L 262.28 746.76
  A 0.54 0.53 90.0 0 1 261.75 746.22
  Q 261.72 728.22 261.73 710.08
  C 261.74 701.67 261.11 692.03 261.03 682.80
  L 376.51 682.75
  Z"
/>
<path fill="#ffb702" d="
  M 1192.69 746.75
  L 1199.23 747.02
  Q 1286.62 877.06 1309.42 910.82
  C 1317.24 922.40 1320.73 933.62 1320.73 947.74
  Q 1320.77 1063.70 1320.74 1179.62
  A 0.41 0.41 0.0 0 1 1320.33 1180.03
  L 1227.80 1180.04
  A 0.55 0.54 89.5 0 1 1227.25 1179.49
  L 1227.25 1067.50
  A 0.50 0.50 0.0 0 0 1226.75 1067.00
  L 220.25 1067.00
  A 0.75 0.75 0.0 0 0 219.50 1067.75
  L 219.50 1179.74
  A 0.31 0.31 0.0 0 1 219.19 1180.05
  L 126.28 1180.02
  A 0.29 0.28 -90.0 0 1 126.00 1179.73
  Q 126.00 1065.32 126.00 950.70
  Q 126.00 939.14 127.35 932.92
  Q 129.72 922.08 135.29 913.80
  Q 196.16 823.30 257.04 732.80
  Q 257.88 731.56 260.13 729.61
  Q 260.58 729.21 260.53 729.81
  Q 260.38 731.60 259.69 733.22
  Q 227.27 809.76 194.72 886.24
  C 185.93 906.88 200.62 927.75 222.69 927.75
  Q 715.93 927.75 1209.16 927.75
  Q 1212.32 927.75 1218.82 928.02
  C 1235.78 928.74 1249.46 921.56 1253.97 904.93
  C 1255.69 898.59 1254.36 892.04 1251.57 885.46
  Q 1222.15 816.05 1192.69 746.75
  Z"
/>
<path fill="#ffffff" d="
  M 264.90 1098.94
  C 305.87 1144.95 352.29 1185.54 405.17 1217.86
  C 499.31 1275.40 607.48 1307.39 718.43 1307.94
  C 896.12 1308.81 1062.96 1233.78 1180.32 1100.57
  Q 1181.14 1099.63 1182.09 1098.83
  A 1.40 1.33 23.4 0 1 1182.99 1098.50
  L 1194.64 1098.50
  Q 1195.29 1098.50 1195.28 1099.14
  L 1195.24 1198.58
  Q 1195.24 1199.09 1194.87 1199.44
  C 930.78 1448.74 517.65 1448.89 252.65 1200.36
  C 251.79 1199.55 251.27 1198.59 251.27 1197.33
  Q 251.21 1148.17 251.27 1099.02
  Q 251.27 1098.50 251.79 1098.50
  L 263.92 1098.50
  A 1.37 1.34 -20.2 0 1 264.90 1098.94
  Z"
/>
</svg>
