<svg width="435" height="264" viewBox="0 0 435 264" fill="none" xmlns="http://www.w3.org/2000/svg">
<path d="M138.536 132.395C138.513 132.388 138.494 132.374 138.48 132.356C138.466 132.338 138.459 132.316 138.458 132.293C138.458 119.631 138.458 106.955 138.458 94.2659C138.458 92.0663 139.888 89.5353 142.702 90.332C155.392 93.9322 168.43 94.6314 181.328 93.0106C192.175 91.6464 203.032 89.0926 213.773 86.7386C226.83 83.8739 240.209 81.84 253.488 82.1215C267.533 82.4166 281.472 85.3698 294.559 90.1731C296.766 90.9835 298.843 91.719 298.843 94.3885C298.843 105.773 298.839 117.176 298.831 128.597C298.831 128.625 298.82 128.652 298.801 128.672C298.781 128.692 298.754 128.705 298.725 128.706C298.184 128.74 297.616 128.543 297.223 128.477C291.646 127.54 286.06 127.029 280.463 126.945C280.334 126.943 280.27 126.882 280.272 126.761C280.28 124.492 280.414 122.338 280.675 120.298C280.733 119.853 280.877 119.388 281.105 118.902C281.846 117.336 282.378 115.706 282.702 114.013C282.822 113.377 282.588 112.918 281.808 113.105C279.753 113.593 277.651 114.596 275.468 114.855C271.98 115.271 268.483 115.424 264.978 115.313C262.024 115.218 259.804 115.309 257.186 115.611C254.285 115.947 251.235 115.499 248.262 115.42C244.428 115.318 240.093 115.104 236.4 114.664C234.601 114.448 232.953 113.842 231.241 113.266C230.763 113.105 230.248 113.168 229.748 113.157C229.71 113.155 229.672 113.161 229.637 113.174C229.601 113.186 229.57 113.205 229.543 113.229C228.809 113.885 230.277 115.99 230.507 116.848C230.864 118.192 230.941 119.683 231.048 121.265C231.107 122.169 231.233 123.227 231.424 124.441C231.722 126.33 231.868 128.22 231.862 130.114C231.862 130.22 231.805 130.279 231.692 130.291L206.211 133.149C206.178 133.152 206.144 133.15 206.112 133.141C206.08 133.131 206.051 133.116 206.025 133.096C206 133.075 205.98 133.05 205.965 133.021C205.951 132.993 205.943 132.962 205.943 132.931C205.834 128.672 205.851 124.416 206.317 120.164C206.362 119.756 206.486 119.342 206.689 118.923C207.505 117.252 208.072 115.491 208.389 113.64C208.405 113.554 208.397 113.466 208.366 113.384C208.335 113.301 208.283 113.228 208.213 113.17C207.98 112.978 207.691 112.928 207.348 113.018C205.484 113.506 203.609 114.38 201.755 114.691C199.611 115.051 197.851 115.222 196.472 115.202C192.455 115.143 188.44 115.212 184.429 115.409C183.258 115.465 181.27 115.76 179.761 115.649C178.079 115.527 176.396 115.426 174.71 115.347C173.993 115.313 173.034 115.506 172.454 115.434C169.423 115.045 165.947 115.098 162.208 114.621C160.293 114.376 158.556 113.756 156.743 113.164C156.546 113.1 156.068 113.084 155.308 113.116C155.231 113.119 155.167 113.148 155.117 113.204C154.574 113.829 155.549 115.32 155.837 115.985C156.817 118.253 156.549 121.047 156.938 123.449C157.308 125.736 157.508 128.037 157.537 130.354C157.559 132.177 157.238 133.793 156.743 135.507C156.704 135.64 156.611 135.701 156.465 135.689C150.318 135.169 144.4 134.338 138.536 132.395Z" fill="#1E0FA0"/>
<path d="M132.386 147.879C132.331 147.863 132.283 147.832 132.248 147.789C132.214 147.746 132.195 147.694 132.196 147.64L132.191 133.546C132.191 133.523 132.197 133.5 132.21 133.48C132.222 133.46 132.24 133.444 132.261 133.432C132.282 133.421 132.306 133.415 132.331 133.415C132.355 133.415 132.38 133.421 132.401 133.432C136.779 135.773 141.449 137.406 146.412 138.331C156.39 140.188 166.609 140.324 176.741 139.993C183.92 139.758 192.675 139.132 203.008 138.115C221.645 136.281 240.257 134.12 258.969 133.056C264.785 132.724 270.567 132.708 276.39 132.785C281.643 132.854 286.864 133.283 292.054 134.072C298.479 135.049 304.727 136.769 310.285 140.029C310.459 140.132 310.556 140.195 310.577 140.217C310.793 140.455 310.74 140.534 310.418 140.456C298.446 137.533 286.267 136.207 273.881 136.476C244.187 137.121 215.923 145.622 186.779 149.781C168.322 152.416 150.245 152.577 132.386 147.879Z" fill="#FFB703"/>
<path d="M186.446 167.235C184.323 168.259 184.089 170.817 184.953 172.71C185.632 174.195 187.775 174.655 189.289 174.478C189.326 174.474 189.36 174.457 189.384 174.431C189.409 174.405 189.422 174.372 189.422 174.338V172.349C189.422 172.319 189.409 172.29 189.386 172.269C189.364 172.248 189.333 172.236 189.301 172.236H187.144C187.101 172.236 187.059 172.219 187.028 172.19C186.997 172.161 186.98 172.122 186.98 172.081L186.975 170.24C186.975 170.205 186.982 170.171 186.996 170.139C187.01 170.106 187.031 170.077 187.057 170.053C187.084 170.028 187.115 170.009 187.149 169.996C187.184 169.983 187.221 169.976 187.258 169.977L192.332 170.041C192.366 170.041 192.398 170.053 192.421 170.076C192.445 170.098 192.458 170.129 192.458 170.161L192.434 175.654C192.432 175.737 192.391 175.796 192.311 175.831C189.731 176.9 186.002 177.259 183.603 175.645C181.014 173.906 180.635 169.966 182.031 167.475C183.97 164.011 189.023 163.984 192.337 165.621C192.406 165.654 192.441 165.707 192.441 165.78V168.256C192.441 168.293 192.43 168.329 192.409 168.361C192.388 168.392 192.358 168.416 192.322 168.432C192.286 168.447 192.246 168.453 192.207 168.448C192.168 168.443 192.131 168.428 192.1 168.404C190.514 167.144 188.407 166.286 186.446 167.235Z" fill="#1E0FA0"/>
<path d="M206.034 171.545C206.029 172.913 205.445 174.224 204.412 175.188C203.379 176.152 201.98 176.691 200.524 176.686L199.491 176.683C198.035 176.678 196.64 176.13 195.614 175.159C194.588 174.188 194.015 172.874 194.02 171.505L194.026 169.771C194.031 168.403 194.615 167.092 195.648 166.128C196.681 165.164 198.079 164.625 199.535 164.629L200.569 164.633C202.025 164.638 203.42 165.186 204.446 166.157C205.472 167.128 206.045 168.442 206.04 169.81L206.034 171.545ZM200.037 174.562C200.805 174.562 201.542 174.152 202.085 173.421C202.628 172.691 202.933 171.7 202.933 170.667C202.933 169.634 202.628 168.643 202.085 167.913C201.542 167.182 200.805 166.772 200.037 166.772C199.269 166.772 198.533 167.182 197.989 167.913C197.446 168.643 197.141 169.634 197.141 170.667C197.141 171.7 197.446 172.691 197.989 173.421C198.533 174.152 199.269 174.562 200.037 174.562Z" fill="#1E0FA0"/>
<path d="M240.376 175.831C235.187 178.262 229.908 176.011 230.224 170.14C230.509 164.874 236.057 163.319 240.45 165.532C240.528 165.572 240.566 165.633 240.566 165.716V168.318C240.566 168.341 240.559 168.364 240.547 168.383C240.534 168.403 240.515 168.419 240.493 168.429C240.471 168.44 240.446 168.444 240.422 168.442C240.397 168.44 240.374 168.431 240.354 168.417C239.262 167.637 238.209 166.838 236.76 166.842C235.125 166.849 233.997 167.866 233.617 169.337C232.47 173.791 236.61 176.251 240.223 172.982C240.253 172.955 240.291 172.936 240.333 172.929C240.374 172.922 240.417 172.926 240.456 172.942C240.494 172.958 240.527 172.984 240.551 173.018C240.574 173.051 240.586 173.09 240.586 173.13L240.557 175.559C240.556 175.616 240.539 175.671 240.507 175.719C240.475 175.767 240.429 175.806 240.376 175.831Z" fill="#1E0FA0"/>
<path d="M243.269 170.83C241.528 169.552 241.757 167.006 243.368 165.73C245.419 164.107 248.911 164.411 251.377 165.314C251.412 165.327 251.442 165.349 251.463 165.378C251.484 165.407 251.496 165.441 251.496 165.476V167.864C251.496 167.89 251.488 167.916 251.474 167.938C251.46 167.96 251.439 167.979 251.414 167.991C251.39 168.003 251.362 168.009 251.334 168.007C251.306 168.005 251.279 167.997 251.257 167.982C249.877 167.101 246.617 166.057 245.337 167.616C245.288 167.673 245.262 167.744 245.262 167.816C245.264 169.807 251.063 168.753 251.885 171.99C252.551 174.628 250.332 176.437 247.706 176.694C245.75 176.886 243.881 176.605 242.1 175.852C242.056 175.834 242.019 175.804 241.993 175.766C241.967 175.728 241.953 175.684 241.953 175.638L241.96 173.01C241.961 172.985 241.969 172.961 241.985 172.941C242 172.92 242.022 172.905 242.046 172.897C242.071 172.888 242.098 172.887 242.124 172.894C242.149 172.9 242.172 172.914 242.189 172.933C242.231 172.979 242.284 172.995 242.349 172.98C242.356 172.978 242.364 172.978 242.371 172.98C242.379 172.981 242.385 172.984 242.39 172.989C243.992 174.247 245.759 174.721 247.689 174.41C249.03 174.197 249.107 172.615 247.735 172.306C245.907 171.895 244.477 171.72 243.269 170.83Z" fill="#1E0FA0"/>
<path d="M208.143 176.392L208.138 164.933C208.138 164.898 208.153 164.865 208.179 164.84C208.206 164.815 208.241 164.801 208.278 164.801H211.097C211.134 164.801 211.17 164.815 211.196 164.84C211.222 164.865 211.237 164.898 211.237 164.933L211.213 174.147C211.213 174.182 211.228 174.215 211.254 174.24C211.28 174.265 211.316 174.279 211.353 174.279H216.394C216.412 174.279 216.43 174.282 216.447 174.289C216.464 174.295 216.48 174.305 216.493 174.317C216.506 174.329 216.516 174.344 216.523 174.36C216.53 174.376 216.534 174.393 216.534 174.41V176.421C216.534 176.439 216.53 176.456 216.523 176.472C216.516 176.488 216.506 176.502 216.493 176.515C216.48 176.527 216.464 176.536 216.447 176.543C216.43 176.55 216.412 176.553 216.394 176.553L208.283 176.524C208.265 176.524 208.247 176.52 208.23 176.514C208.213 176.507 208.197 176.497 208.184 176.485C208.171 176.473 208.161 176.458 208.154 176.442C208.147 176.426 208.143 176.409 208.143 176.392Z" fill="#1E0FA0"/>
<path d="M217.949 164.938C217.949 164.904 217.964 164.872 217.989 164.848C218.014 164.824 218.049 164.81 218.085 164.81L223 164.785C223.804 164.781 224.602 164.921 225.346 165.196C226.091 165.47 226.769 165.875 227.341 166.387C227.912 166.899 228.367 167.508 228.678 168.179C228.99 168.849 229.152 169.569 229.156 170.297L229.161 170.946C229.169 172.416 228.532 173.828 227.389 174.873C226.246 175.917 224.692 176.509 223.067 176.517L218.15 176.542C218.132 176.542 218.114 176.539 218.097 176.533C218.081 176.527 218.065 176.517 218.053 176.505C218.04 176.494 218.03 176.479 218.023 176.464C218.016 176.448 218.012 176.432 218.012 176.415L217.949 164.938ZM221.123 167.21V174.147C221.123 174.186 221.14 174.224 221.169 174.251C221.198 174.279 221.238 174.294 221.28 174.294H222.565C223.46 174.294 224.318 173.942 224.951 173.314C225.584 172.686 225.939 171.834 225.939 170.946V170.411C225.939 169.523 225.584 168.671 224.951 168.043C224.318 167.415 223.46 167.062 222.565 167.062H221.28C221.238 167.062 221.198 167.078 221.169 167.106C221.14 167.133 221.123 167.171 221.123 167.21Z" fill="#1E0FA0"/>
<path d="M182.444 187.787C182.358 187.856 182.289 187.942 182.242 188.038C182.195 188.135 182.172 188.24 182.173 188.346L182.256 194.329C182.257 194.469 182.184 194.538 182.036 194.538H180.727C180.646 194.538 180.606 194.5 180.606 194.425V182.28C180.606 182.205 180.646 182.167 180.727 182.167H182.048C182.082 182.167 182.114 182.179 182.138 182.202C182.162 182.225 182.176 182.255 182.176 182.287L182.193 186.591C182.193 186.61 182.198 186.629 182.209 186.644C182.22 186.66 182.236 186.673 182.254 186.681C182.273 186.688 182.293 186.691 182.313 186.688C182.333 186.685 182.352 186.676 182.367 186.664C184.011 185.265 186.661 184.993 187.654 187.02C187.868 187.459 187.973 188.174 187.968 189.165C187.96 190.913 187.984 192.661 188.04 194.409C188.041 194.426 188.038 194.442 188.031 194.458C188.025 194.474 188.015 194.488 188.002 194.5C187.99 194.512 187.975 194.522 187.958 194.528C187.941 194.535 187.923 194.538 187.905 194.538H186.577C186.477 194.538 186.426 194.491 186.424 194.397C186.391 192.286 186.385 190.555 186.408 189.204C186.453 186.448 184.28 186.316 182.444 187.787Z" fill="#FFB703"/>
<path d="M218.341 193.737C213.85 196.754 211.387 192.504 212.285 188.879C212.957 186.166 215.343 184.723 218.198 186.042C218.382 186.126 218.473 186.073 218.471 185.883L218.454 182.294C218.454 182.209 218.499 182.167 218.589 182.167H219.884C219.985 182.167 220.036 182.214 220.036 182.31V194.368C220.036 194.481 219.976 194.538 219.855 194.538H218.558C218.539 194.538 218.52 194.535 218.502 194.527C218.485 194.52 218.469 194.51 218.456 194.496C218.443 194.483 218.433 194.468 218.427 194.45C218.421 194.433 218.419 194.415 218.42 194.397L218.481 193.814C218.494 193.691 218.447 193.666 218.341 193.737ZM214.239 192.461C214.966 194.121 218.454 193.294 218.464 191.948C218.473 190.486 218.473 189.015 218.461 187.533C218.46 187.457 218.423 187.401 218.353 187.365C216.667 186.5 214.577 186.684 213.995 188.684C213.619 189.972 213.7 191.231 214.239 192.461Z" fill="#FFB703"/>
<path d="M262.034 193.753C261.428 194.111 260.889 194.513 260.225 194.665C253.667 196.161 254.532 182.655 261.949 186.071C261.968 186.08 261.989 186.084 262.01 186.083C262.031 186.083 262.052 186.077 262.07 186.066C262.088 186.056 262.103 186.041 262.113 186.024C262.123 186.006 262.128 185.987 262.128 185.967L262.113 182.342C262.113 182.225 262.175 182.167 262.299 182.167H263.541C263.642 182.167 263.693 182.214 263.693 182.307V194.425C263.693 194.502 263.653 194.54 263.572 194.538L262.2 194.536C262.179 194.536 262.157 194.531 262.137 194.522C262.118 194.513 262.101 194.5 262.087 194.484C262.074 194.468 262.064 194.449 262.06 194.429C262.055 194.409 262.055 194.388 262.06 194.368L262.196 193.864C262.201 193.844 262.199 193.824 262.192 193.805C262.184 193.786 262.171 193.77 262.154 193.758C262.137 193.746 262.116 193.739 262.095 193.738C262.073 193.737 262.052 193.742 262.034 193.753ZM257.623 188.77C256.911 191.476 258.114 195.244 261.906 192.563C261.973 192.515 262.028 192.453 262.066 192.382C262.103 192.311 262.123 192.232 262.123 192.152V187.508C262.123 187.441 262.092 187.393 262.029 187.363C260.273 186.523 258.167 186.7 257.623 188.77Z" fill="#FFB703"/>
<path d="M158.279 192.034C159.539 188.511 152.17 190.327 151.675 186.496C151.409 184.462 153.047 182.88 155.177 182.657C156.602 182.507 158.031 182.734 159.462 183.336C159.533 183.366 159.57 183.418 159.573 183.49L159.643 185.134C159.645 185.163 159.637 185.193 159.62 185.218C159.604 185.243 159.579 185.264 159.551 185.276C159.522 185.288 159.49 185.293 159.459 185.288C159.427 185.283 159.398 185.27 159.375 185.249C158.187 184.217 155.1 183.179 153.834 184.716C152.627 186.182 153.834 187.331 155.354 187.708C157.515 188.246 160.281 188.577 160.081 191.294C159.776 195.426 154.629 195.315 151.67 193.864C151.638 193.848 151.61 193.824 151.591 193.794C151.572 193.764 151.562 193.729 151.562 193.694V191.984C151.562 191.959 151.57 191.935 151.585 191.914C151.6 191.893 151.622 191.877 151.646 191.867C151.671 191.858 151.698 191.855 151.723 191.861C151.749 191.866 151.773 191.878 151.791 191.896C153.156 193.217 157.38 194.552 158.279 192.034Z" fill="#FFB703"/>
<path d="M168.587 193.151C166.735 195.812 162.066 195.153 161.216 191.869C160.411 188.777 161.733 185.186 165.814 185.579C169.5 185.933 170.266 190.741 168.587 193.151ZM163.274 192.518C164.136 193.605 165.865 193.785 166.872 192.822C168.041 191.71 168.232 187.79 166.428 187.149C164.276 186.382 162.902 187.445 162.689 189.379C162.576 190.393 162.59 191.658 163.274 192.518Z" fill="#FFB703"/>
<path d="M172.715 186.625C173.374 186.21 174.007 185.74 174.787 185.629C178.043 185.163 178.425 187.422 178.432 189.894C178.439 191.403 178.437 192.911 178.427 194.42C178.427 194.499 178.385 194.538 178.302 194.538H176.988C176.88 194.538 176.826 194.488 176.826 194.388C176.802 192.778 176.791 191.173 176.795 189.572C176.796 188.636 176.73 188.02 176.596 187.724C175.906 186.205 173.698 187.02 172.688 187.942C172.634 187.99 172.606 188.05 172.606 188.121L172.626 194.4C172.626 194.492 172.577 194.538 172.481 194.538H171.193C171.068 194.538 171.005 194.479 171.005 194.361V185.924C171.005 185.854 171.041 185.818 171.114 185.815L172.35 185.753C172.392 185.752 172.434 185.759 172.473 185.774C172.512 185.789 172.546 185.812 172.574 185.841C172.603 185.871 172.624 185.905 172.636 185.943C172.648 185.981 172.651 186.021 172.645 186.06L172.568 186.537C172.565 186.554 172.568 186.571 172.576 186.587C172.584 186.602 172.596 186.615 172.611 186.625C172.627 186.634 172.645 186.639 172.663 186.639C172.682 186.639 172.7 186.634 172.715 186.625Z" fill="#FFB703"/>
<path d="M194.453 194.736C188.422 195.589 187.874 186.31 193.054 185.601C199.119 184.775 199.648 194.003 194.453 194.736ZM191.344 191.587C191.745 193.285 194.047 194.057 195.313 192.945C196.675 191.746 196.876 187.476 194.6 187C191.318 186.312 190.842 189.451 191.344 191.587Z" fill="#FFB703"/>
<path d="M204.175 192.196C204.141 190.323 200.245 191.292 199.438 189.569C198.867 188.354 198.949 187.363 199.685 186.596C201.047 185.177 203.641 185.374 205.377 186.153C205.409 186.167 205.436 186.189 205.455 186.218C205.474 186.246 205.484 186.278 205.484 186.312V187.672C205.484 187.695 205.477 187.718 205.464 187.738C205.451 187.758 205.432 187.775 205.41 187.785C205.387 187.796 205.362 187.8 205.337 187.797C205.312 187.795 205.289 187.786 205.269 187.771C204.195 186.989 203.015 186.735 201.728 187.009C200.081 187.361 200.433 188.861 201.916 189.274C203.728 189.778 206.218 189.862 205.762 192.445C205.257 195.29 201.197 195.09 199.156 194.071C199.11 194.047 199.071 194.013 199.044 193.971C199.017 193.929 199.002 193.881 199.001 193.832L198.994 192.423C198.994 192.409 198.998 192.396 199.005 192.384C199.012 192.373 199.023 192.363 199.036 192.357C199.049 192.351 199.063 192.349 199.077 192.35C199.092 192.351 199.105 192.356 199.117 192.364C200.31 193.158 202.448 193.966 203.737 193.026C204.034 192.812 204.179 192.535 204.175 192.196Z" fill="#FFB703"/>
<path d="M224.746 194.645C220.802 193.864 220.708 187.186 224.309 185.824C225.544 185.356 226.753 185.409 227.937 185.983C229.837 186.902 230.311 189.306 230.033 191.174C229.647 193.771 227.625 195.217 224.746 194.645ZM226.782 187.047C222.464 185.747 222.369 193.004 225.352 193.397C229.33 193.921 229.362 187.824 226.782 187.047Z" fill="#FFB703"/>
<path d="M252.455 193.723C251.659 194.214 251.136 194.5 250.885 194.584C248.556 195.353 246.581 193.968 246.684 191.71C246.81 188.988 249.957 188.897 252.43 188.686C252.509 188.68 252.551 188.641 252.556 188.568C252.757 186.173 249.034 186.884 247.595 187.331C247.575 187.337 247.554 187.339 247.534 187.336C247.514 187.333 247.494 187.325 247.478 187.314C247.461 187.302 247.447 187.287 247.438 187.269C247.43 187.252 247.425 187.232 247.426 187.213L247.46 186.064C247.463 185.983 247.507 185.931 247.593 185.91C249.431 185.445 252.868 185.1 253.843 186.993C254.045 187.385 254.145 188.05 254.143 188.988C254.14 190.784 254.165 192.575 254.218 194.359C254.218 194.382 254.214 194.405 254.205 194.427C254.196 194.449 254.182 194.469 254.165 194.485C254.148 194.502 254.127 194.515 254.104 194.525C254.081 194.534 254.057 194.538 254.032 194.538H252.67C252.648 194.538 252.626 194.534 252.606 194.526C252.586 194.517 252.568 194.505 252.554 194.49C252.539 194.474 252.528 194.456 252.522 194.436C252.515 194.416 252.513 194.396 252.515 194.375L252.583 193.798C252.595 193.688 252.553 193.663 252.455 193.723ZM249.006 193.19C250.189 193.812 251.44 193.233 252.501 192.414C252.563 192.365 252.594 192.303 252.592 192.227L252.558 189.957C252.557 189.873 252.511 189.832 252.421 189.835C250.819 189.907 248.247 189.969 248.341 192.089C248.365 192.603 248.587 192.97 249.006 193.19Z" fill="#FFB703"/>
<path d="M266.625 193.885C264.705 192.25 264.618 188.477 266.362 186.711C267.635 185.42 269.763 185.229 271.371 186.005C273.637 187.1 274.009 190.466 273.077 192.488C272.067 194.681 268.782 195.719 266.625 193.885ZM267.785 192.906C269.217 193.905 270.951 193.51 271.589 191.955C272.251 190.339 272.098 187.104 269.642 186.898C266.311 186.616 265.976 191.646 267.785 192.906Z" fill="#FFB703"/>
<path d="M279.743 192.259C279.811 190.003 274.248 191.726 274.637 188.046C274.946 185.138 278.733 185.206 280.9 186.132C280.967 186.161 281.003 186.21 281.006 186.28L281.067 187.681C281.067 187.7 281.062 187.718 281.052 187.735C281.042 187.751 281.027 187.765 281.009 187.774C280.991 187.783 280.971 187.787 280.951 187.785C280.931 187.784 280.912 187.778 280.895 187.767C279.922 187.086 276.134 186.017 276.246 188.244C276.311 189.587 279.731 189.431 280.74 190.364C281.772 191.319 281.463 193.051 280.567 193.85C279.052 195.197 276.439 194.942 274.661 194.039C274.632 194.024 274.607 194.003 274.59 193.976C274.573 193.95 274.564 193.92 274.564 193.889L274.562 192.497C274.56 192.389 274.61 192.362 274.712 192.418C275.965 193.11 277.166 193.644 278.663 193.342C279.26 193.224 279.724 192.87 279.743 192.259Z" fill="#FFB703"/>
<path d="M237.298 193.705C234.492 195.748 231.734 194.849 231.7 191.385C231.682 189.625 231.679 187.82 231.69 185.969C231.69 185.856 231.751 185.799 231.874 185.799H233.137C233.224 185.799 233.267 185.839 233.267 185.919C233.254 187.849 233.252 189.775 233.26 191.699C233.274 194.343 236.185 193.428 237.393 192.366C237.422 192.34 237.446 192.309 237.462 192.274C237.478 192.238 237.487 192.2 237.487 192.162V185.912C237.487 185.837 237.527 185.799 237.608 185.799H238.907C239.007 185.799 239.057 185.846 239.057 185.942L239.059 194.416C239.059 194.497 239.016 194.538 238.929 194.538H237.591C237.566 194.538 237.542 194.533 237.52 194.523C237.498 194.513 237.478 194.498 237.463 194.48C237.448 194.462 237.437 194.441 237.431 194.418C237.426 194.396 237.426 194.372 237.431 194.35L237.547 193.855C237.554 193.825 237.552 193.794 237.539 193.766C237.527 193.738 237.506 193.714 237.479 193.698C237.452 193.682 237.42 193.673 237.387 193.675C237.355 193.676 237.324 193.687 237.298 193.705Z" fill="#FFB703"/>
<path d="M243.042 186.932C244.09 186.167 244.899 185.663 246.204 185.824C246.281 185.833 246.319 185.874 246.317 185.949L246.295 187.215C246.294 187.312 246.242 187.355 246.141 187.345C244.957 187.234 243.92 187.531 243.03 188.234C242.958 188.29 242.921 188.363 242.921 188.452V194.425C242.921 194.5 242.881 194.538 242.801 194.538H241.482C241.367 194.538 241.309 194.485 241.308 194.377L241.284 185.944C241.284 185.847 241.335 185.799 241.438 185.799H242.74C242.861 185.799 242.921 185.856 242.921 185.969V186.875C242.921 186.972 242.962 186.991 243.042 186.932Z" fill="#FFB703"/>
</svg>
